<?xml version="1.0" standalone="no"?>
<!DOCTYPE svg PUBLIC "-//W3C//DTD SVG 20010904//EN"
 "http://www.w3.org/TR/2001/REC-SVG-20010904/DTD/svg10.dtd">
<svg version="1.0" xmlns="http://www.w3.org/2000/svg"
 width="435.000000pt" height="435.000000pt" viewBox="0 0 435.000000 435.000000"
 preserveAspectRatio="xMidYMid meet">
<metadata>
Created by potrace 1.14, written by Peter Selinger 2001-2017
</metadata>
<g transform="translate(0.000000,435.000000) scale(0.100000,-0.100000)"
fill="#000000" stroke="none">
<path d="M4019 3243 c-9 -10 -51 -51 -93 -92 -42 -41 -76 -78 -76 -83 0 -5 5
-19 11 -30 11 -20 9 -20 -35 -14 -25 4 -53 3 -64 -3 -11 -6 -23 -6 -28 -1 -5
5 -27 11 -49 14 -36 6 -37 5 -15 -5 70 -32 93 -46 118 -73 23 -25 20 -24 -23
8 -27 21 -69 42 -92 49 -24 6 -43 17 -43 24 0 7 -5 13 -11 13 -5 0 -7 -5 -4
-11 5 -7 -20 -10 -77 -9 -45 1 -85 1 -88 0 -20 -6 -48 -5 -44 2 3 4 0 8 -5 8
-6 0 -11 -4 -11 -10 0 -5 -10 -10 -22 -9 -22 0 -22 1 -3 10 14 6 4 8 -35 4
-146 -12 -207 -34 -278 -100 l-57 -53 2 -96 c1 -52 7 -104 13 -115 6 -11 9
-33 8 -48 -3 -42 10 -58 30 -40 37 31 222 104 222 88 0 -5 -12 -12 -27 -16
-30 -7 -202 -91 -278 -135 -27 -15 -63 -31 -80 -34 -16 -3 -23 -3 -15 0 43 17
120 58 120 64 0 4 -21 -4 -47 -16 -27 -13 -73 -30 -103 -38 -30 -8 -54 -18
-53 -23 1 -4 -15 -9 -36 -9 -41 -1 -107 -32 -145 -68 -25 -23 -36 -43 -16 -31
6 3 7 -1 4 -9 -3 -9 -10 -13 -15 -10 -5 3 -10 -1 -10 -8 -1 -7 -3 -23 -4 -35
-3 -27 21 -63 41 -63 8 0 14 -4 14 -10 0 -5 -4 -10 -9 -10 -8 0 -89 -36 -241
-108 -30 -14 -57 -26 -60 -27 -3 -1 -16 -6 -30 -12 -14 -6 -32 -14 -40 -17 -8
-3 -22 -10 -30 -16 -13 -8 -84 -40 -100 -45 -3 0 -45 -20 -93 -43 -49 -23 -91
-42 -93 -42 -2 0 -30 -13 -63 -29 l-58 -28 24 61 c13 34 30 75 38 91 25 54 35
85 27 85 -9 -1 -73 -130 -72 -147 0 -6 -3 -13 -7 -15 -5 -1 -18 -24 -30 -51
-18 -37 -29 -49 -53 -53 -16 -4 -30 -10 -30 -15 0 -5 -3 -8 -7 -7 -10 2 -29
-6 -121 -48 -41 -19 -78 -34 -83 -34 -5 0 -9 -5 -9 -11 0 -5 -3 -8 -8 -5 -4 2
-34 -9 -67 -25 -33 -16 -65 -29 -71 -29 -8 0 -10 21 -8 68 2 37 5 186 7 332 5
249 -2 279 -18 80 -3 -47 -9 -92 -11 -100 -3 -8 -7 -100 -10 -205 -6 -186 -6
-191 -31 -217 -35 -37 -35 -96 2 -173 15 -33 27 -69 26 -80 -1 -15 0 -17 7 -6
8 11 11 11 18 -1 40 -68 116 -128 162 -128 10 0 39 13 65 30 26 16 52 30 57
30 6 0 10 4 10 8 0 5 48 39 107 77 59 37 112 72 118 77 22 19 117 78 126 78 5
0 9 4 9 8 0 5 17 17 37 28 36 19 62 37 88 61 7 7 14 10 17 8 2 -2 17 7 32 20
16 14 33 25 37 25 4 0 14 7 23 15 8 9 17 11 21 6 3 -6 -2 -16 -11 -23 -41 -33
-121 -108 -168 -156 -133 -139 -156 -164 -156 -169 0 -3 -18 -25 -40 -50 -40
-46 -48 -63 -30 -63 6 0 10 3 10 8 0 4 64 73 143 154 78 81 167 175 197 209
30 34 61 67 67 74 10 11 10 15 0 19 -7 4 -8 8 -2 11 16 8 189 123 202 135 7 5
15 10 19 10 4 0 22 11 40 25 18 14 35 25 38 25 2 0 48 29 100 65 52 36 100 65
106 65 5 0 10 4 10 8 0 4 15 16 33 27 17 10 78 49 135 87 56 37 105 68 108 68
3 0 14 -10 24 -22 25 -31 98 -30 160 2 62 33 58 32 212 35 152 2 204 15 271
67 39 31 192 217 210 256 7 14 19 22 36 22 16 0 34 10 47 28 22 26 23 26 37 8
8 -11 20 -20 28 -22 55 -9 117 -28 151 -45 l39 -20 29 33 29 33 -21 17 c-27
20 -117 50 -129 42 -5 -3 -9 -3 -9 0 0 9 71 42 130 61 69 22 71 24 75 75 11
151 -115 371 -255 443 -29 15 -53 27 -54 27 -1 0 -9 -8 -17 -17z m-724 -282
c-3 -11 9 -30 33 -53 29 -27 39 -45 40 -68 0 -20 8 -38 21 -47 12 -8 21 -21
21 -30 0 -9 -12 -1 -30 22 -16 21 -30 50 -30 64 0 17 -11 35 -32 52 -19 16
-33 37 -33 51 -1 13 -5 31 -10 39 -8 12 -6 12 8 0 10 -8 15 -21 12 -30z m649
-106 c9 -18 16 -39 15 -47 0 -7 -7 3 -16 22 -8 19 -24 48 -36 65 l-21 30 21
-18 c12 -11 29 -34 37 -52z m-594 -159 c-8 -8 -28 -17 -45 -20 l-30 -6 32 12
c17 7 35 16 39 21 4 4 10 7 13 7 3 0 -1 -6 -9 -14z m79 -225 c-13 -20 -95 -68
-103 -60 -4 4 102 79 112 79 1 0 -3 -8 -9 -19z m-669 -15 c0 -2 -7 -7 -16 -10
-8 -3 -12 -2 -9 4 6 10 25 14 25 6z m-100 -41 c0 -2 -10 -9 -22 -15 -22 -11
-22 -10 -4 4 21 17 26 19 26 11z"/>
<path d="M3563 3043 c9 -2 23 -2 30 0 6 3 -1 5 -18 5 -16 0 -22 -2 -12 -5z"/>
<path d="M713 2491 c2 -51 1 -54 -30 -70 -40 -20 -42 -36 -6 -39 34 -3 39 -8
56 -56 l13 -39 21 39 c19 37 23 39 62 37 38 -2 40 -1 30 18 -5 11 -17 23 -25
26 -16 6 -15 32 4 51 20 22 14 32 -14 22 -14 -6 -30 -8 -35 -4 -5 3 -9 -1 -9
-8 -1 -13 -33 21 -57 58 -10 16 -12 11 -10 -35z"/>
<path d="M1564 2355 c-18 -34 -32 -40 -91 -38 -21 1 -15 -13 16 -38 16 -13 27
-28 23 -33 -3 -6 -7 -23 -9 -39 -3 -31 5 -30 44 5 21 20 21 20 44 -6 23 -26
60 -38 42 -13 -5 6 -10 23 -11 37 -2 20 4 28 30 38 31 12 32 13 13 25 -19 11
-25 13 -44 16 -5 0 -12 19 -16 41 -4 22 -10 40 -14 40 -4 0 -16 -16 -27 -35z"/>
<path d="M2193 2331 c-8 -13 -19 -18 -33 -14 -22 6 -27 -6 -9 -24 8 -8 8 -17
-1 -33 -11 -21 -11 -22 13 -16 14 3 29 1 32 -4 4 -6 11 -8 16 -4 5 3 7 9 4 14
-3 5 3 13 12 19 17 9 17 11 1 23 -9 7 -18 23 -20 36 -3 22 -3 22 -15 3z"/>
<path d="M860 2260 c0 -3 5 -21 11 -40 5 -19 12 -44 14 -55 3 -11 13 -47 24
-80 17 -53 40 -131 47 -160 1 -5 14 -44 29 -85 14 -41 27 -80 28 -86 11 -52
113 -344 115 -330 2 9 -3 35 -12 57 -9 21 -14 39 -12 39 2 0 -3 21 -11 48 -17
56 -43 149 -49 177 -5 25 -34 113 -46 140 -4 11 -10 30 -13 42 -12 65 -122
359 -125 333z"/>
<path d="M320 2179 c0 -17 29 -88 82 -199 33 -69 59 -127 59 -130 0 -3 6 -12
13 -20 6 -8 18 -28 26 -45 8 -16 27 -52 42 -78 16 -26 28 -54 28 -62 0 -7 3
-15 8 -17 4 -1 20 -28 36 -58 65 -125 121 -227 142 -261 13 -20 20 -40 17 -43
-4 -3 -2 -6 4 -6 6 0 16 -13 23 -30 7 -16 19 -35 27 -41 11 -10 11 -7 -1 17
-15 27 -80 166 -121 259 -92 204 -307 615 -327 623 -4 2 -8 8 -8 13 0 6 -11
27 -25 47 -14 20 -25 34 -25 31z"/>
<path d="M763 1875 c4 -29 0 -38 -21 -53 l-25 -19 31 -6 c21 -4 33 -14 40 -34
l10 -28 12 32 c10 28 15 31 30 23 25 -13 39 9 17 25 -12 8 -13 15 -6 22 17 17
1 37 -17 22 -11 -9 -20 -4 -45 20 l-31 31 5 -35z"/>
<path d="M110 1827 c0 -8 5 -28 11 -45 9 -26 8 -36 -8 -59 -38 -54 -38 -54 4
-47 37 6 40 4 67 -35 16 -23 29 -41 30 -41 1 0 0 20 -2 44 -4 45 -4 45 35 52
21 5 41 9 46 10 4 1 10 2 14 3 8 1 -38 41 -49 41 -4 0 -8 18 -8 40 0 39 -1 39
-25 28 -14 -6 -25 -15 -25 -19 0 -11 -28 0 -62 23 -22 15 -28 16 -28 5z"/>
<path d="M276 1638 c12 -20 109 -150 130 -175 11 -12 30 -36 44 -53 14 -18 41
-49 60 -70 19 -21 51 -57 70 -80 54 -64 123 -137 114 -120 -10 20 -72 109 -98
141 -12 15 -30 39 -41 54 -11 16 -24 33 -30 39 -5 6 -22 27 -36 46 -59 78
-198 230 -211 230 -5 0 -6 -6 -2 -12z"/>
<path d="M2232 1407 c3 -17 -1 -29 -14 -38 -17 -13 -27 -35 -10 -26 13 8 52
-12 52 -28 0 -22 14 -18 25 8 6 13 17 21 28 19 19 -3 23 13 6 24 -6 3 -9 19
-5 35 5 27 4 28 -18 18 -17 -8 -30 -8 -46 1 -21 11 -22 10 -18 -13z"/>
<path d="M22 1396 c7 -8 15 -12 17 -11 2 2 14 -6 26 -18 13 -12 45 -38 72 -57
26 -19 51 -39 55 -45 4 -5 8 -7 8 -2 0 4 8 -1 18 -10 28 -26 62 -53 67 -53 4
0 15 -8 67 -52 12 -10 25 -18 30 -18 12 0 -42 53 -96 95 -21 17 -44 35 -50 40
-6 6 -27 22 -46 35 -19 13 -37 27 -40 30 -3 3 -30 22 -61 43 -57 38 -92 50
-67 23z"/>
<path d="M1130 1390 c0 -5 5 -10 11 -10 5 0 7 5 4 10 -3 6 -8 10 -11 10 -2 0
-4 -4 -4 -10z"/>
<path d="M2505 1327 c-33 -18 -63 -36 -67 -42 -4 -5 -8 -6 -8 -1 0 5 -8 2 -17
-7 -10 -8 -25 -17 -33 -19 -8 -2 -17 -5 -20 -8 -4 -5 -141 -88 -192 -116 -11
-7 -16 -14 -11 -17 6 -4 27 5 47 19 21 15 44 27 51 28 7 1 21 8 30 16 9 8 24
15 33 16 8 2 18 6 21 11 8 10 58 39 94 54 15 6 27 14 27 19 0 4 8 10 18 14 21
7 49 25 76 49 27 23 21 21 -49 -16z"/>
<path d="M491 1202 c0 -8 -10 -12 -23 -10 -18 2 -22 -1 -20 -15 2 -10 -3 -26
-10 -35 -7 -9 -8 -13 -2 -9 6 3 22 0 37 -8 15 -7 26 -11 26 -7 -3 19 2 32 12
30 6 -2 14 3 16 10 3 6 -2 12 -10 12 -9 0 -18 10 -20 23 -2 12 -5 16 -6 9z"/>
</g>
</svg>
