<?xml version="1.0" encoding="UTF-8"?>
<svg width="18px" height="20px" viewBox="0 0 18 20" version="1.1" xmlns="http://www.w3.org/2000/svg" xmlns:xlink="http://www.w3.org/1999/xlink">
    <title>67CE5CD3-AA14-4465-89D3-01EDA4EB8CA2</title>
    <g id="Sandbox" stroke="none" stroke-width="1" fill="none" fill-rule="evenodd">
        <g id="lazy" transform="translate(-925.000000, -587.000000)" fill="#1D1E26">
            <g id="Group-5" transform="translate(925.000000, 587.000000)">
                <path d="M3.67659574,4.08515626 L3.67659574,12.4595246 C3.67659574,14.3738198 5.23469083,15.9319149 7.14898605,15.9319149 L7.14898605,15.9319149 L14.706383,15.9319149 L14.706383,17.3616523 C14.706383,18.6010971 13.6989694,19.6085106 12.4595246,19.6085106 L12.4595246,19.6085106 L2.24685839,19.6085106 C1.00741358,19.6085106 -9.05941988e-14,18.6010971 -9.05941988e-14,17.3616523 L-9.05941988e-14,17.3616523 L-9.05941988e-14,6.33186502 C-9.05941988e-14,5.09242021 1.00741358,4.08515626 2.24685839,4.08515626 L2.24685839,4.08515626 L3.67659574,4.08515626 Z M15.7277095,7.54951657e-14 C16.9686502,7.54951657e-14 17.9744182,1.00576796 17.9744182,2.24685839 L17.9744182,2.24685839 L17.9744182,12.4595246 C17.9744182,13.700615 16.9686502,14.706383 15.7277095,14.706383 L15.7277095,14.706383 L7.14898605,14.706383 C5.90789562,14.706383 4.90212766,13.700615 4.90212766,12.4595246 L4.90212766,12.4595246 L4.90212766,2.24685839 C4.90212766,1.00576796 5.90789562,7.54951657e-14 7.14898605,7.54951657e-14 L7.14898605,7.54951657e-14 Z" id="Combined-Shape"></path>
            </g>
        </g>
    </g>
</svg>